<?xml version="1.0" standalone="no"?><!DOCTYPE svg PUBLIC "-//W3C//DTD SVG 1.1//EN" "http://www.w3.org/Graphics/SVG/1.1/DTD/svg11.dtd"><svg class="icon" width="200px" height="200.00px" viewBox="0 0 1024 1024" version="1.1" xmlns="http://www.w3.org/2000/svg"><path d="M0 0h1024v1024H0V0z" fill="#202425" opacity=".01" /><path d="M68.266667 341.333333a34.133333 34.133333 0 0 1 68.266666 0v68.266667h750.933334v-68.266667a34.133333 34.133333 0 1 1 68.266666 0v204.8a34.133333 34.133333 0 1 1-68.266666 0v-68.266666h-34.133334v34.133333c0 188.5184-152.814933 341.333333-341.333333 341.333333S170.666667 700.5184 170.666667 512v-34.133333H136.533333v68.266666a34.133333 34.133333 0 1 1-68.266666 0v-204.8z" fill="#FFAA44" /><path d="M238.933333 307.2a273.066667 273.066667 0 1 1 546.133334 0v204.8a273.1008 273.1008 0 0 1-238.933334 270.9504v80.896l301.124267 92.637867c18.7392 5.768533 14.574933 33.3824-5.0176 33.3824H181.76c-19.592533 0-23.722667-27.648-5.0176-33.3824L477.866667 863.8464v-80.896A273.1008 273.1008 0 0 1 238.933333 512V307.2z" fill="#11AA66" /><path d="M341.333333 426.666667a17.066667 17.066667 0 0 1 17.066667-17.066667h307.2a17.066667 17.066667 0 0 1 0 34.133333h-307.2a17.066667 17.066667 0 0 1-17.066667-17.066666z" fill="#FFFFFF" /></svg>